# xmcd CD database file
#
# Track frame offsets:
#	150
#	96617
#	125735
#
# Disc length: 2055 seconds
#
# Revision: 0
# Processed by: cddbd v1.5.2PL0 Copyright (c) Steve Scherf et al.
# Submitted via: CDex 1.70beta2
#
DISCID=29080503
DTITLE=Yamamoto Seiichi - Otomo Yoshihide - Yamamoto Seiichi - Nambajazz
DYEAR=2008
DGENRE=Jazz
TTITLE0=Otomo Yoshihide - Yamamoto Seiichi
TTITLE1=Nambajazz
TTITLE2=Nambajazz
EXTD=YEAR: 2008
EXTT0=
EXTT1=
EXTT2=
PLAYORDER=
